<?xml version="1.0" encoding="UTF-8"?>
<svg version="1.1" xmlns="http://www.w3.org/2000/svg" width="128" height="128" viewBox="0 0 1024 1024">
<path d="M0 0 C4.84600867 3.80271615 9.46582058 7.83258531 14 12 C14.52190918 12.47663086 15.04381836 12.95326172 15.58154297 13.44433594 C44.54957984 40.21657172 65.44558197 82.51858219 67.20263672 122.03320312 C68.98970673 172.63830025 54.98717546 218.56475022 20.55761719 256.3359375 C-3.72894695 282.28221041 -38.00753049 300.48285531 -73.83203125 302.4140625 C-105.79842695 303.29756972 -137.30044174 291.93590602 -160.65625 269.9296875 C-161.29345474 269.33178406 -161.93065948 268.73388062 -162.58717346 268.11785889 C-170.65706124 260.49787311 -178.51968475 252.66637202 -186.36694336 244.81835938 C-188.98077008 242.20676691 -191.60256801 239.60334199 -194.22460938 237 C-195.88850706 235.3390286 -197.55193704 233.67758852 -199.21484375 232.015625 C-199.99899155 231.23866272 -200.78313934 230.46170044 -201.59104919 229.66119385 C-202.30342239 228.94574402 -203.01579559 228.23029419 -203.74975586 227.49316406 C-204.3795787 226.86476624 -205.00940155 226.23636841 -205.65830994 225.58892822 C-207 224 -207 224 -207 222 C-207.593004 221.74460449 -208.186008 221.48920898 -208.79698181 221.22607422 C-211.22460954 219.87499515 -212.4910695 218.52115454 -214.24829102 216.3828125 C-217.97028158 211.99000775 -221.94301479 207.92968842 -226.02734375 203.875 C-226.79740753 203.10639648 -227.56747131 202.33779297 -228.36087036 201.54589844 C-230.02007108 199.89047995 -231.68042521 198.23621686 -233.34182739 196.58300781 C-235.97630318 193.96138614 -238.60756325 191.33657422 -241.23803711 188.7109375 C-246.82255171 183.13780777 -252.41095721 177.56858768 -258 172 C-264.48049024 165.54322744 -270.95927529 159.08475739 -277.43386841 152.62207031 C-280.01692943 150.04545682 -282.603001 147.47189171 -285.18920898 144.8984375 C-286.78384047 143.30744106 -288.37833031 141.71630263 -289.97265625 140.125 C-290.68455109 139.41827148 -291.39644592 138.71154297 -292.12991333 137.98339844 C-296.03490074 134.07882029 -299.73878257 130.06594005 -303.34615517 125.88556099 C-305.83178419 123.05167657 -308.4583068 120.37068731 -311.11206055 117.69506836 C-311.67902145 117.11992996 -312.24598236 116.54479156 -312.8301239 115.95222473 C-314.67936405 114.07847786 -316.53245455 112.20861838 -318.38671875 110.33984375 C-319.3475534 109.37102359 -319.3475534 109.37102359 -320.32779884 108.3826313 C-323.71655047 104.96730426 -327.10886734 101.55555985 -330.50366211 98.14624023 C-333.29101975 95.3455409 -336.07092503 92.53775408 -338.84448242 89.72338867 C-342.2194436 86.29880551 -345.60679942 82.88694763 -349.00312233 79.48355293 C-350.28423347 78.19578458 -351.56113296 76.90381037 -352.83344078 75.60734367 C-366.56417774 61.63078137 -380.30847915 52.71413943 -400.5625 52.5 C-408.64261577 52.58554913 -415.65063871 53.40555256 -423 57 C-423.97839844 57.474375 -424.95679688 57.94875 -425.96484375 58.4375 C-434.1133281 62.8001377 -440.51721925 68.51721925 -447 75 C-447.7425 75.7425 -448.485 76.485 -449.25 77.25 C-467.92845757 97.09586117 -473.78589323 121.6779816 -473.12304688 148.0625 C-472.55368678 161.65484259 -468.03518198 172.99637122 -462 185 C-461.18015625 186.65708984 -461.18015625 186.65708984 -460.34375 188.34765625 C-455.83629808 196.73284254 -449.68885237 203.32768665 -443 210 C-442.32066406 210.6909375 -441.64132812 211.381875 -440.94140625 212.09375 C-430.08329822 222.36808878 -415.35692537 229.05767756 -400.4375 229.4375 C-376.95262706 228.69003484 -363.19940634 215.43914045 -347.6939888 199.64689255 C-345.24423226 197.15443038 -342.78457234 194.67183371 -340.32559776 192.18847084 C-335.76828342 187.58565792 -331.21533832 182.97868925 -326.67822266 178.35595703 C-323.50032302 175.11884968 -320.31049854 171.89393331 -317.11231613 168.67686844 C-315.89969887 167.45249428 -314.69163437 166.22359376 -313.48823929 164.99015427 C-311.8154478 163.27658207 -310.12792713 161.57896244 -308.43603516 159.88427734 C-307.94248535 159.37118011 -307.44893555 158.85808289 -306.94042969 158.32943726 C-303.59748817 155.02575249 -303.59748817 155.02575249 -300.96401978 154.9122467 C-298.24077043 156.42049193 -296.3340426 158.30805707 -294.13964844 160.51977539 C-293.67089294 160.9880928 -293.20213745 161.45641022 -292.71917725 161.93891907 C-291.17535675 163.48482547 -289.6424274 165.04107683 -288.109375 166.59765625 C-287.03957606 167.67305184 -285.96911176 168.74778592 -284.89801025 169.82188416 C-282.08344419 172.64789349 -279.27800421 175.48279642 -276.47436523 178.31964111 C-273.61075972 181.21395852 -270.73862139 184.09978076 -267.8671875 186.98632812 C-262.23640183 192.64926883 -256.61522817 198.32163273 -251 204 C-252.76070823 207.80152914 -254.99317343 210.0615104 -258 213 C-259.57989461 214.86326637 -261.13253798 216.74448632 -262.66796875 218.64453125 C-263.10753906 219.09183594 -263.54710937 219.53914062 -264 220 C-264.66 220 -265.32 220 -266 220 C-266.22922653 220.55356171 -266.45845306 221.10712341 -266.69462585 221.67745972 C-268.37035855 224.65894721 -270.4724606 226.73473412 -272.88598633 229.16064453 C-273.38233582 229.66210495 -273.8786853 230.16356537 -274.39007568 230.68022156 C-276.03225169 232.33628897 -277.68174575 233.98482878 -279.33203125 235.6328125 C-280.48652132 236.79119451 -281.64078915 237.94979803 -282.79484558 239.10861206 C-285.22009781 241.54132906 -287.64919224 243.97013124 -290.08081055 246.39648438 C-293.16415928 249.47408924 -296.23610587 252.56279063 -299.30489063 255.65490913 C-301.69084007 258.05576413 -304.08386708 260.4494712 -306.47882652 262.8413353 C-307.6120214 263.97503669 -308.74291752 265.11104152 -309.87125587 266.24957657 C-319.96222522 276.4203857 -330.53034613 285.83024672 -343.4375 292.3125 C-344.25114014 292.72709473 -345.06478027 293.14168945 -345.90307617 293.56884766 C-370.91176943 306.07196318 -398.80778756 309.54312612 -426 303 C-427.216875 302.73316406 -428.43375 302.46632813 -429.6875 302.19140625 C-450.76880528 297.16673073 -469.83484124 286.29994814 -486 272 C-486.97453125 271.14664062 -487.9490625 270.29328125 -488.953125 269.4140625 C-516.85677795 244.63723369 -535.65019649 212.36857245 -544 176 C-544.16371094 175.31309082 -544.32742188 174.62618164 -544.49609375 173.91845703 C-554.02751566 132.1594071 -544.3897624 85.89496702 -522.1875 49.8125 C-500.02287816 15.05482323 -466.45421691 -11.88966729 -425.8046875 -20.96875 C-393.45269279 -27.55315191 -360.44512204 -20.76424023 -332.83203125 -2.95703125 C-325.1686343 2.45814769 -318.25479397 8.72691483 -311.63515854 15.36183739 C-309.61708118 17.38362231 -307.59529326 19.40166806 -305.57351685 21.41975403 C-304.29101547 22.70008766 -304.29101547 22.70008766 -302.98260498 24.00628662 C-302.05780334 24.92951721 -301.13300171 25.8527478 -300.18017578 26.80395508 C-290.13602407 36.83154939 -280.09460767 46.86187925 -270.0545826 56.89360523 C-263.98191974 62.9611122 -257.90831814 69.02767395 -251.83251953 75.09204102 C-246.51866798 80.39590004 -241.2065992 85.70153713 -235.89662921 91.00928229 C-233.09146384 93.81314968 -230.28543993 96.61614503 -227.47726822 99.41700172 C-224.83373466 102.05370335 -222.1926063 104.69279122 -219.5532341 107.33365822 C-218.13332319 108.75316692 -216.71093645 110.17019778 -215.28845215 111.58712769 C-210.93503325 115.94750011 -206.74476235 120.36829868 -202.72928619 125.04053402 C-199.46185774 128.74287948 -195.95389502 132.21083204 -192.46948242 135.70751953 C-191.64571609 136.53785706 -190.82194977 137.36819458 -189.97322083 138.22369385 C-187.27019355 140.94629072 -184.56328797 143.66498192 -181.85546875 146.3828125 C-180.46061973 147.78377481 -180.46061973 147.78377481 -179.03759193 149.2130394 C-174.6255726 153.6440466 -170.21118828 158.07268077 -165.79385394 162.49838936 C-160.72223916 167.5797832 -155.65902569 172.66936077 -150.60273856 177.76600564 C-146.67325459 181.72575799 -142.73602213 185.67769975 -138.79302675 189.62399757 C-136.4471173 191.97224309 -134.10557825 194.3245732 -131.7701931 196.68329239 C-129.16241487 199.3155126 -126.5421862 201.93471613 -123.91870117 204.55126953 C-123.16148773 205.32129303 -122.40427429 206.09131653 -121.62411499 206.88467407 C-110.33024888 218.07070549 -96.33686194 224.77051996 -80.4375 225.4375 C-62.81442408 225.15202901 -47.89585818 216.39775221 -35 205 C-34.37480469 204.47019531 -33.74960937 203.94039062 -33.10546875 203.39453125 C-16.74263954 188.48787888 -7.69040507 164.54784215 -6.62109375 142.86328125 C-6.27426747 130.64482245 -6.99208071 119.58675733 -11 108 C-11.31348389 107.06220703 -11.31348389 107.06220703 -11.63330078 106.10546875 C-16.52366578 91.71643975 -24.42348315 79.91071906 -35 69 C-35.54914063 68.37738281 -36.09828125 67.75476563 -36.6640625 67.11328125 C-45.87987776 57.01220294 -61.23386376 48.75088016 -75 48 C-75.86753906 47.94972656 -76.73507812 47.89945312 -77.62890625 47.84765625 C-102.93831353 47.02270816 -121.35126203 61.73246761 -139 78 C-140.88502276 79.67987655 -142.78385347 81.34185784 -144.69140625 82.99609375 C-146.52016863 84.58349663 -148.33770444 86.18173345 -150.15234375 87.78515625 C-177.90774192 112.15213169 -177.90774192 112.15213169 -193.73046875 111.30859375 C-196.98086085 110.86662994 -199.90210937 110.07752718 -203 109 C-203 108.34 -203 107.68 -203 107 C-201.53125 105.84375 -201.53125 105.84375 -199.5 104.5 C-187.69622205 95.80793856 -177.52485076 78.28632694 -174 64 C-173.90098069 61.31162582 -174.21858844 59.62331025 -175 57 C-177.53186878 55.73406561 -179.34974791 55.84081806 -182.18408203 55.79467773 C-183.26505157 55.77473251 -184.34602112 55.75478729 -185.45974731 55.73423767 C-186.63060883 55.71752518 -187.80147034 55.70081268 -189.0078125 55.68359375 C-190.8014473 55.6524221 -190.8014473 55.6524221 -192.63131714 55.62062073 C-196.46248464 55.55507711 -200.29372238 55.49621782 -204.125 55.4375 C-206.71745527 55.39431937 -209.30990336 55.35070523 -211.90234375 55.30664062 C-218.26815427 55.19939081 -224.63403513 55.0976334 -231 55 C-230.69055299 57.58373234 -230.37756043 60.16695133 -230.0625 62.75 C-229.97548828 63.47960937 -229.88847656 64.20921875 -229.79882812 64.9609375 C-229.37972591 68.37584442 -228.882726 71.67603543 -228 75 C-235.68046512 71.52110223 -240.78169842 64.65273557 -244 57 C-244 56.01 -244 55.02 -244 54 C-244.845625 53.95875 -245.69125 53.9175 -246.5625 53.875 C-251.95363821 52.50271028 -255.59779183 49.27858828 -258.5 44.5625 C-259.21407813 40.90284958 -259.07329899 38.59870836 -258 35 C-253.41149403 29.72369819 -247.161891 26.78491097 -241 23.75 C-230.55823107 18.44367627 -220.99033254 12.38070982 -211.54296875 5.48046875 C-210.97771484 5.07393066 -210.41246094 4.66739258 -209.83007812 4.24853516 C-208.30778673 3.14935388 -206.79971239 2.03055537 -205.29296875 0.91015625 C-196.61713723 -4.12244353 -187.59187971 -4.54844348 -177.75 -5 C-165.13184208 -5.58627133 -153.06296386 -7.07731652 -141.25 -11.75 C-140.59572021 -12.00313965 -139.94144043 -12.2562793 -139.26733398 -12.51708984 C-135.68929151 -13.90674393 -132.13499933 -15.35236802 -128.58203125 -16.8046875 C-118.52930622 -20.87499579 -108.64344017 -23.89395758 -98 -26 C-96.58074219 -26.29197266 -96.58074219 -26.29197266 -95.1328125 -26.58984375 C-61.55168416 -30.98637552 -26.71991287 -20.33739383 0 0 Z " fill="#335F8A" transform="translate(752,376)"/>
<path d="M0 0 C-3.54665312 2.75856173 -7.27593709 4.68975448 -11.3125 6.625 C-59.8362203 30.53579985 -96.10214914 72.90078076 -113.83740234 123.91625977 C-115.29924933 128.25526252 -116.67060629 132.61878072 -118 137 C-118.3091333 138.00716064 -118.3091333 138.00716064 -118.62451172 139.03466797 C-120.00553321 143.64812403 -121.07352994 148.27895535 -122 153 C-122.18191895 153.92441895 -122.36383789 154.84883789 -122.55126953 155.80126953 C-125.37259463 170.83323243 -126.37724153 185.55775332 -126.375 200.8125 C-126.37681274 201.60916077 -126.37862549 202.40582153 -126.38049316 203.22662354 C-126.37779881 213.66105241 -125.65381263 223.68228192 -124 234 C-123.84450684 235.03519775 -123.68901367 236.07039551 -123.52880859 237.13696289 C-115.3350059 289.77892773 -88.46777784 338.55356889 -45.62988281 370.77148438 C-44.19892404 371.85006204 -42.78186854 372.94703395 -41.3671875 374.046875 C-20.55235832 389.83743507 2.94573714 400.8993679 28 408 C28 408.33 28 408.66 28 409 C5.0978431 410.39647298 -18.48580068 405.7422426 -40 398 C-40.81581543 397.70754395 -41.63163086 397.41508789 -42.47216797 397.11376953 C-73.03963461 385.94295419 -98.47168224 368.26433159 -122 346 C-122.680625 345.36191406 -123.36125 344.72382812 -124.0625 344.06640625 C-129.18904871 339.1178627 -133.61425783 333.60478233 -138 328 C-138.42829102 327.4534375 -138.85658203 326.906875 -139.29785156 326.34375 C-147.22655225 316.13562037 -153.80718293 305.33373812 -160 294 C-160.34015137 293.38302246 -160.68030273 292.76604492 -161.03076172 292.13037109 C-186.06049607 246.24470545 -192.28375892 189.30711179 -178.25 139.0625 C-169.77971164 110.7137908 -156.38874651 83.82155192 -135.52636719 62.56152344 C-133.84548367 60.84192476 -132.19337525 59.09672164 -130.5390625 57.3515625 C-101.7775909 27.39471969 -62.63699581 9.03195177 -22.0625 1.6875 C-20.66004028 1.42984863 -20.66004028 1.42984863 -19.22924805 1.16699219 C-12.77278967 0.07137849 -6.54242165 -0.19240088 0 0 Z " fill="#472C79" transform="translate(313,324)"/>
<path d="M0 0 C9.59578838 -0.46431234 18.61439132 1.22729267 28 3 C28.72219727 3.12858398 29.44439453 3.25716797 30.18847656 3.38964844 C49.10839805 6.79575432 67.36916 13.87873615 84.23681641 23.04248047 C85.95403697 23.97503919 87.68588049 24.8805113 89.41796875 25.78515625 C129.9178835 47.73620325 161.67412342 85.73956514 175.5078125 129.7734375 C185.24920098 162.96107407 188.84376717 197.91063088 181.8125 232.0625 C181.59327881 233.13741699 181.37405762 234.21233398 181.14819336 235.31982422 C176.62836438 256.78702741 169.21162823 276.61433887 159 296 C158.65598145 296.6614502 158.31196289 297.32290039 157.95751953 298.00439453 C152.297346 308.81018037 145.60224709 318.47272039 138 328 C137.55962402 328.55751953 137.11924805 329.11503906 136.66552734 329.68945312 C108.32984354 365.30650966 70.50637535 389.24977394 27 402 C26.24589844 402.22268555 25.49179687 402.44537109 24.71484375 402.67480469 C7.77196639 407.52806816 -10.42800662 409.35439314 -28 409 C-25.01348767 407.00899178 -22.92401423 406.31925135 -19.5 405.375 C0.87366255 399.23127914 20.74531662 389.44680131 38 377 C39.50626953 375.92105469 39.50626953 375.92105469 41.04296875 374.8203125 C46.88243311 370.54247929 52.37343583 366.03064404 57.69140625 361.12109375 C59.81495436 359.17001655 61.98675681 357.30031718 64.1875 355.4375 C68.19595044 351.92313291 71.61529602 348.11231789 75 344 C75.43328613 343.47905762 75.86657227 342.95811523 76.31298828 342.42138672 C100.37120543 313.40641049 116.06617465 280.1543141 123.3125 243.0625 C123.47210205 242.24700684 123.6317041 241.43151367 123.79614258 240.59130859 C134.10575671 183.90266283 121.51223101 123.02252023 90 75 C87.14158734 70.8785678 84.13353391 66.91562254 81 63 C80.59056152 62.48759766 80.18112305 61.97519531 79.75927734 61.44726562 C68.64500863 47.64673036 56.2896489 35.48432078 42 25 C40.96488281 24.23171875 39.92976562 23.4634375 38.86328125 22.671875 C26.82131648 14.02946114 13.6739251 6.72256778 0 1 C0 0.67 0 0.34 0 0 Z " fill="#219598" transform="translate(711,324)"/>
</svg>
